<?xml version="1.0" standalone="no"?>
<!DOCTYPE svg PUBLIC "-//W3C//DTD SVG 20010904//EN"
 "http://www.w3.org/TR/2001/REC-SVG-20010904/DTD/svg10.dtd">
<svg version="1.0" xmlns="http://www.w3.org/2000/svg"
 width="260.000000pt" height="260.000000pt" viewBox="0 0 260.000000 260.000000"
 preserveAspectRatio="xMidYMid meet">
<metadata>
Created by potrace 1.14, written by Peter Selinger 2001-2017
</metadata>
<g transform="translate(0.000000,260.000000) scale(0.100000,-0.100000)"
fill="#000000" stroke="none">
<path d="M1123 2099 c-51 -9 -102 -35 -110 -56 -3 -8 4 -35 16 -59 11 -25 21
-50 21 -57 0 -7 -22 -22 -50 -35 -44 -20 -50 -27 -50 -53 0 -19 -14 -48 -40
-82 -48 -65 -86 -146 -97 -212 -9 -52 -9 -175 0 -235 3 -19 9 -53 12 -75 6
-38 20 -92 52 -200 8 -27 16 -57 18 -65 14 -67 61 -209 74 -223 32 -38 72 -48
201 -52 47 -2 90 -4 95 -4 14 -1 15 -9 20 -206 5 -188 2 -211 -26 -220 -12 -4
-22 -19 -26 -36 -5 -27 -23 -46 -48 -48 -36 -4 -79 -27 -100 -55 -23 -31 -48
-110 -37 -121 3 -3 167 -5 364 -5 406 0 377 -7 339 83 -30 70 -101 111 -202
116 -32 2 -51 69 -55 196 -2 66 -6 136 -9 155 -3 19 -8 46 -10 60 -6 45 -16
93 -20 101 -3 4 12 10 33 15 20 4 42 8 47 10 16 4 53 14 76 19 64 14 235 77
327 121 l72 35 -5 72 c-3 40 -8 90 -10 112 -3 22 -8 63 -10 90 -8 75 -21 176
-29 215 -3 14 -7 45 -10 71 -3 25 -7 52 -10 60 -3 7 -7 32 -10 54 -6 46 -11
68 -30 153 -32 138 -47 168 -107 204 -26 16 -91 37 -139 45 -39 6 -222 5 -250
-1 -14 -4 -46 -9 -71 -12 -43 -5 -46 -4 -44 18 2 25 -13 77 -26 92 -13 14 -90
23 -136 15z"/>
</g>
</svg>
